<?xml version="1.0" standalone="no"?>
<!DOCTYPE svg PUBLIC "-//W3C//DTD SVG 20010904//EN"
 "http://www.w3.org/TR/2001/REC-SVG-20010904/DTD/svg10.dtd">
<svg version="1.0" xmlns="http://www.w3.org/2000/svg"
 width="300.000000pt" height="300.000000pt" viewBox="0 0 300.000000 300.000000"
 preserveAspectRatio="xMidYMid meet">
<metadata>
Created by potrace 1.11, written by Peter Selinger 2001-2013
</metadata>
<g transform="translate(0.000000,300.000000) scale(0.100000,-0.100000)"
fill="#000000" stroke="none">
<path d="M745 2250 l-750 -750 753 -753 752 -752 752 752 753 753 -750 750
c-412 412 -752 750 -755 750 -3 0 -343 -338 -755 -750z m1380 -130 l620 -620
-623 -623 -622 -622 -622 622 -623 623 620 620 c341 341 622 620 625 620 3 0
284 -279 625 -620z"/>
<path d="M1500 1500 l0 -1175 587 588 588 587 -588 587 -587 588 0 -1175z
m303 562 l177 -177 -180 -180 -180 -180 0 358 c0 196 1 357 3 357 1 0 82 -80
180 -178z"/>
<path d="M1217 1142 l-177 -177 180 -180 180 -180 0 358 c0 196 -1 357 -3 357
-1 0 -82 -80 -180 -178z"/>
</g>
</svg>
